{"title":"Circle 2010 DVDrip XviD-PRESTiGE","uid":6228685,"size":735574570,"categoryP":"video","categoryS":"movies","magnet":"?xt=urn:btih:8fdf6e2bb650d07d4a5695b4c745667214f7a578&amp;dn=Circle+2010+DVDrip+XviD-PRESTiGE&amp;tr=udp%3A%2F%2Ftracker.openbittorrent.com%3A80&amp;tr=udp%3A%2F%2Fopen.demonii.com%3A1337&amp;tr=udp%3A%2F%2Ftracker.coppersurfer.tk%3A6969&amp;tr=udp%3A%2F%2Fexodus.desync.com%3A6969","seeders":0,"leechers":0,"uploader":"sceneline","files":8,"time":1299616868,"description":"-\nhttp:// www . torrentkit. com        \nhttp:// www .torrentkit. com       the fast  and The Hottest Private Tracker on the net\n\nPlease Seed back to make the speed Faster!!!\n\nand don't forget to visit      ...... www .torrentkit .com..........\n-*******************************************************************************\n                       Circle 2010 DVDrip XviD-PRESTiGE\n*******************************************************************************\n\n-------------------------------------------------------------------------------\n                              General Information\n-------------------------------------------------------------------------------\nType.................: Movie\nMore Info............: http://twistedtorrents.com\nImage Format.........: .avi\nImage Created with...: autogk\n\n\n\nVideo Format.........: AVI\nVideo Bitrate........: 1 114 Kbps\nSource...............: DVD 16x9\nOriginal Format......: NTSC\nGenre................: Thriller\nMovie Information....: http://www.imdb.com/title/tt1129412/\nCD1 Size.............: 701 mb\n\n-------------------------------------------------------------------------------\n                                 Release Notes\n-------------------------------------------------------------------------------\nCircle 2010 DVDrip XviD-PRESTiGE\n\nFormat                           : AVI\nFormat/Info                      : Audio Video Interleave\nFile size                        : 701 MiB\nDuration                         : 1h 27mn\nOverall bit rate                 : 1 114 Kbps\nWriting application              : VirtualDubMod 1.5.4.1 (build 2178/release)\nWriting library                  : VirtualDubMod build 2178/release\n\nVideo\nID                               : 0\nFormat                           : MPEG-4 Visual\nFormat profile                   : Advanced Simple@L5\nFormat settings, BVOP            : 1\nFormat settings, QPel            : No\nFormat settings, GMC             : No warppoints\nFormat settings, Matrix          : Custom\nCodec ID                         : XVID\nCodec ID/Hint                    : XviD\nDuration                         : 1h 27mn\nBit rate                         : 928 Kbps\nWidth                            : 704 pixels\nHeight                           : 400 pixels\nDisplay aspect ratio             : 16:9\nFrame rate                       : 23.976 fps\nColor space                      : YUV\nChroma subsampling               : 4:2:0\nBit depth                        : 8 bits\nScan type                        : Progressive\nCompression mode                 : Lossy\nBits/(Pixel*Frame)               : 0.137\nStream size                      : 584 MiB (83%)\nWriting library                  : XviD 1.2.1 (UTC 2008-12-04)\n\nAudio\nID                               : 1\nFormat                           : MPEG Audio\nFormat version                   : Version 1\nFormat profile                   : Layer 3\nMode                             : Joint stereo\nMode extension                   : MS Stereo\nCodec ID                         : 55\nCodec ID/Hint                    : MP3\nDuration                         : 1h 27mn\nBit rate mode                    : Variable\nBit rate                         : 174 Kbps\nNominal bit rate                 : 192 Kbps\nChannel(s)                       : 2 channels\nSampling rate                    : 48.0 KHz\nCompression mode                 : Lossy\nStream size                      : 109 MiB (16%)\nAlignment                        : Aligned on interleaves\nInterleave, duration             : 24 ms (0.58 video frame)\nInterleave, preload duration     : 106 ms\nWriting library                  : LAME3.98r\nEncoding settings                : -m j -V 4 -q 2 -lowpass 18.6 --abr 192\n\nPRESTiGE RELEASE Encoded By Mazz 8 March 2011\n\nCome And Join Us @ http://twistedtorrents.com\n\nEnjoy\n\n\n\n-------------------------------------------------------------------------------\nGenerated with Cool NFO Creator - http://fly.to/coolbeans\n-------------------------------------------------------------------------------","torrent":{"xt":"urn:btih:8fdf6e2bb650d07d4a5695b4c745667214f7a578","amp;dn":"Circle+2010+DVDrip+XviD-PRESTiGE","amp;tr":["udp%3A%2F%2Ftracker.openbittorrent.com%3A80","udp%3A%2F%2Fopen.demonii.com%3A1337","udp%3A%2F%2Ftracker.coppersurfer.tk%3A6969","udp%3A%2F%2Fexodus.desync.com%3A6969"],"infoHash":"8fdf6e2bb650d07d4a5695b4c745667214f7a578","infoHashBuffer":{"type":"Buffer","data":[143,223,110,43,182,80,208,125,74,86,149,180,199,69,102,114,20,247,165,120]},"announce":[],"urlList":[]}}